<?xml version="1.0" encoding="UTF-8" standalone="no"?><!DOCTYPE svg PUBLIC "-//W3C//DTD SVG 1.1//EN" "http://www.w3.org/Graphics/SVG/1.1/DTD/svg11.dtd"><svg width="100%" height="100%" viewBox="0 0 800 600" version="1.1" xmlns="http://www.w3.org/2000/svg" xmlns:xlink="http://www.w3.org/1999/xlink" xml:space="preserve" style="fill-rule:evenodd;clip-rule:evenodd;stroke-linecap:round;stroke-linejoin:round;stroke:#949494;stroke-miterlimit:1.5;"><path d="M164.523,563.635c97.34,-135.304 229.734,-110.771 392.437,-207.256c73.092,-43.345 97.243,-137.877 53.898,-210.968c-43.344,-73.092 -137.876,-97.243 -210.968,-53.898c-162.703,96.486 -199.898,336.5 -235.367,472.122Z" style="fill:none;stroke-width:10px;"/><path d="M221.883,464.925c-1.745,-1.745 68.875,-150.749 169.171,-194.847c46.141,-20.287 167.476,-84.192 198.919,-155.494" style="fill:none;stroke-width:10px;"/><path d="M589.973,114.584c0,0 30.859,-66.885 49.297,-66.885c18.437,0 10.525,0 17.881,0" style="fill:none;stroke-width:10px;"/><path d="M533.219,311.872l4.077,-133.754l-156.705,-8.21" style="fill:none;stroke-width:10px;"/><path d="M424.249,356.667l1.3,-103.076l-106.583,-4.586" style="fill:none;stroke-width:10px;"/><path d="M323.717,399.831l-6.989,-75.627l-64.881,15.277" style="fill:none;stroke-width:10px;"/></svg>