<?xml version="1.0" encoding="UTF-8" standalone="no"?><!DOCTYPE svg PUBLIC "-//W3C//DTD SVG 1.1//EN" "http://www.w3.org/Graphics/SVG/1.1/DTD/svg11.dtd"><svg width="100%" height="100%" viewBox="0 0 800 600" version="1.1" xmlns="http://www.w3.org/2000/svg" xmlns:xlink="http://www.w3.org/1999/xlink" xml:space="preserve" style="fill-rule:evenodd;fill:#949494;clip-rule:evenodd;stroke-linejoin:round;stroke-miterlimit:2;"><g><path d="M399.591,138.251c88.569,0 160.475,71.906 160.475,160.474c0,88.569 -71.906,160.475 -160.475,160.475c-88.568,0 -160.474,-71.906 -160.474,-160.475c0,-88.568 71.906,-160.474 160.474,-160.474Zm0,40.118c66.427,0 120.356,53.93 120.356,120.356c0,66.426 -53.929,120.356 -120.356,120.356c-66.426,0 -120.356,-53.93 -120.356,-120.356c0,-66.426 53.93,-120.356 120.356,-120.356Z" style=""/><g><ellipse cx="400.466" cy="71.798" rx="9.281" ry="48.097" style=""/><ellipse cx="400.466" cy="528.194" rx="9.281" ry="48.097" style=""/></g><g><path d="M676.761,300.206c-0.004,5.122 -21.558,9.264 -48.104,9.244c-26.545,-0.02 -48.093,-4.195 -48.089,-9.317c0.004,-5.123 21.558,-9.265 48.104,-9.245c26.545,0.02 48.093,4.195 48.089,9.318Z" style=""/><path d="M220.364,299.859c-0.004,5.123 -21.558,9.265 -48.103,9.245c-26.546,-0.02 -48.094,-4.195 -48.09,-9.318c0.004,-5.122 21.559,-9.264 48.104,-9.244c26.545,0.02 48.093,4.195 48.089,9.317Z" style=""/></g><g><path d="M538.49,60.646c4.437,2.559 -2.726,23.306 -15.987,46.302c-13.261,22.995 -27.629,39.588 -32.067,37.029c-4.437,-2.559 2.727,-23.306 15.987,-46.302c13.261,-22.996 27.63,-39.588 32.067,-37.029Z" style=""/><path d="M310.496,456.015c4.437,2.559 -2.726,23.306 -15.987,46.302c-13.261,22.996 -27.629,39.588 -32.067,37.029c-4.437,-2.559 2.726,-23.306 15.987,-46.302c13.261,-22.995 27.629,-39.588 32.067,-37.029Z" style=""/></g><g><path d="M639.828,161.993c2.559,4.438 -14.035,18.805 -37.032,32.064c-22.996,13.259 -43.744,20.42 -46.303,15.983c-2.558,-4.438 14.035,-18.805 37.032,-32.064c22.997,-13.259 43.745,-20.42 46.303,-15.983Z" style=""/><path d="M244.439,389.952c2.558,4.438 -14.035,18.805 -37.032,32.064c-22.997,13.259 -43.745,20.42 -46.303,15.983c-2.559,-4.438 14.035,-18.805 37.032,-32.064c22.997,-13.258 43.744,-20.42 46.303,-15.983Z" style=""/></g><g><path d="M262.361,60.693c4.437,-2.561 18.811,14.027 32.08,37.018c13.268,22.991 20.439,43.736 16.002,46.296c-4.436,2.56 -18.811,-14.027 -32.079,-37.018c-13.269,-22.991 -20.439,-43.736 -16.003,-46.296Z" style=""/><path d="M490.489,455.985c4.437,-2.56 18.811,14.027 32.079,37.018c13.269,22.991 20.439,43.736 16.003,46.296c-4.437,2.561 -18.811,-14.027 -32.079,-37.018c-13.269,-22.991 -20.439,-43.736 -16.003,-46.296Z" style=""/></g><g><path d="M161.197,161.832c2.561,-4.436 23.304,2.74 46.292,16.014c22.988,13.274 39.572,27.653 37.01,32.088c-2.561,4.436 -23.304,-2.739 -46.292,-16.013c-22.988,-13.275 -39.571,-27.653 -37.01,-32.089Z" style=""/><path d="M556.433,390.058c2.561,-4.436 23.304,2.739 46.292,16.013c22.988,13.275 39.572,27.653 37.01,32.089c-2.561,4.436 -23.304,-2.74 -46.292,-16.014c-22.988,-13.274 -39.572,-27.653 -37.01,-32.088Z" style=""/></g></g></svg>