<?xml version="1.0" encoding="UTF-8" standalone="no"?><!DOCTYPE svg PUBLIC "-//W3C//DTD SVG 1.1//EN" "http://www.w3.org/Graphics/SVG/1.1/DTD/svg11.dtd"><svg width="100%" height="100%" viewBox="0 0 800 600" version="1.1" xmlns="http://www.w3.org/2000/svg" xmlns:xlink="http://www.w3.org/1999/xlink" xml:space="preserve" style="fill-rule:evenodd;clip-rule:evenodd;stroke:#949494;stroke-linecap:round;stroke-linejoin:round;stroke-miterlimit:1.5;"><g><path d="M401.28,138.957c38.589,36.826 87.862,65.273 139.049,80.28c-12.597,51.832 -12.597,108.727 0,160.56c-51.187,15.006 -100.46,43.454 -139.049,80.279c-38.589,-36.825 -87.862,-65.273 -139.049,-80.279c12.598,-51.833 12.598,-108.728 0,-160.56c51.187,-15.007 100.46,-43.454 139.049,-80.28Z" style="fill:none;stroke-width:10px;"/><path d="M401.765,217.258l71.721,41.408l0,82.817l-71.721,41.408l-71.721,-41.408l0,-82.817l71.721,-41.408Z" style="fill:none;stroke-width:10px;"/><path d="M401.484,467.551l0.808,-437.109" style="fill:none;stroke-width:10px;"/><path d="M355.926,56.238l46.653,46.653l46.504,-46.505" style="fill:none;stroke-width:10px;"/><path d="M400.208,459.177l-0.076,108.666" style="fill:none;stroke-width:10px;"/><path d="M447.266,547.491l-46.619,-46.686l-46.538,46.472" style="fill:none;stroke-width:10px;"/><path d="M253.534,384.005l380.407,-218.46" style="fill:none;stroke-width:10px;"/><path d="M584.379,139.604l-17.057,63.733l63.532,17.003" style="fill:none;stroke-width:10px;"/><path d="M261.279,380.261l-94.361,53.892" style="fill:none;stroke-width:10px;"/><path d="M219.281,457.806l17.374,-63.648l-63.446,-17.319" style="fill:none;stroke-width:10px;"/><path d="M549.222,385.506l-381.022,-220.394" style="fill:none;stroke-width:10px;"/><path d="M163.287,218.273l63.737,-17.045l-16.992,-63.535" style="fill:none;stroke-width:10px;"/><path d="M539.714,379.663l93.809,54.846" style="fill:none;stroke-width:10px;"/><path d="M637.997,384.194l-63.821,16.728l16.675,63.619" style="fill:none;stroke-width:10px;"/></g></svg>