<?xml version="1.0" encoding="UTF-8" standalone="no"?><!DOCTYPE svg PUBLIC "-//W3C//DTD SVG 1.1//EN" "http://www.w3.org/Graphics/SVG/1.1/DTD/svg11.dtd"><svg width="100%" height="100%" viewBox="0 0 800 600" version="1.1" xmlns="http://www.w3.org/2000/svg" xmlns:xlink="http://www.w3.org/1999/xlink" xml:space="preserve" style="fill-rule:evenodd;clip-rule:evenodd;stroke:#949494;stroke-linecap:round;stroke-linejoin:round;stroke-miterlimit:1.5;"><circle cx="411.304" cy="226.332" r="34.591" style="fill:none;stroke-width:10px;"/><path d="M446.504,202.217c12.385,-11.844 18.132,-43.043 14.203,-77.105c-4.974,-43.114 -23.64,-76.429 -41.658,-74.351c-18.017,2.079 -28.607,38.769 -23.633,81.883c2.532,21.951 8.807,42.444 17.289,56.463l33.799,13.11Z" style="fill:none;stroke-width:10px;"/><g><path d="M536.475,417.798c-13.385,8.198 -77.396,1.57 -94.881,14.667c-11.741,8.794 -14.134,25.466 -5.339,37.207c8.794,11.741 25.466,14.133 37.207,5.339c17.485,-13.097 55.315,-49.6 63.013,-57.213Z" style="fill:none;stroke-width:10px;"/><path d="M424.391,467.741c24.439,-14.822 51.458,-26.059 75.206,-31.124" style="fill:none;stroke-width:4px;"/><path d="M459.456,437.292l-7.671,15.387l14.116,9.466" style="fill:none;stroke-width:2.5px;"/><path d="M476.014,434.964l-0.227,9.957l8.016,5.764" style="fill:none;stroke-width:2.5px;"/></g><path d="M408.811,186.039c-2.776,-16.91 -25.273,-39.278 -55.598,-55.278c-38.385,-20.253 -76.419,-23.672 -84.883,-7.63c-8.464,16.041 15.828,45.506 54.213,65.759c19.543,10.311 39.997,16.71 56.356,17.631l29.912,-20.482Z" style="fill:none;stroke-width:10px;"/><path d="M376.542,209.94c-15.679,-6.916 -46.705,-0.3 -76.678,16.353c-37.937,21.078 -61.586,51.063 -52.777,66.917c8.809,15.854 46.761,11.613 84.698,-9.465c19.315,-10.732 35.853,-24.365 45.564,-37.562l-0.807,-36.243Z" style="fill:none;stroke-width:10px;"/><path d="M379.313,249.375c-13.269,10.845 -21.425,41.503 -20.156,75.767c1.606,43.37 17.625,78.036 35.749,77.365c18.125,-0.671 31.536,-36.427 29.93,-79.797c-0.818,-22.081 -5.48,-43 -12.847,-57.636l-32.676,-15.699Z" style="fill:none;stroke-width:10px;"/><path d="M419.758,266.013c4.69,16.483 29.597,36.132 61.552,48.562c40.448,15.732 78.624,14.781 85.199,-2.122c6.574,-16.904 -20.926,-43.4 -61.374,-59.132c-20.593,-8.01 -41.645,-12.029 -58.003,-11.074l-27.374,23.766Z" style="fill:none;stroke-width:10px;"/><path d="M455.231,242.096c16.887,2.917 45.39,-11.01 70.442,-34.421c31.71,-29.631 47.4,-64.447 35.017,-77.698c-12.383,-13.252 -48.181,0.046 -79.89,29.678c-16.145,15.086 -28.892,32.315 -35.121,47.47l9.552,34.971Z" style="fill:none;stroke-width:10px;"/><path d="M377.451,549.621c0,0 101.275,-127.95 51.553,-265.585" style="fill:none;stroke-width:12px;"/></svg>